<?xml version="1.0" encoding="UTF-8"?>
<svg version="1.1" xmlns="http://www.w3.org/2000/svg" width="512" height="512">
<path d="M0 0 C0.80537007 -0.00495952 1.61074014 -0.00991903 2.44051537 -0.01502883 C5.13828071 -0.02797868 7.8355506 -0.01960222 10.53332806 -0.01129913 C12.48740146 -0.01618832 14.44147197 -0.02237826 16.39553756 -0.02975702 C21.76480536 -0.04617611 27.13392652 -0.04383457 32.50321066 -0.03838205 C38.29408076 -0.03571429 44.08491155 -0.05023892 49.8757658 -0.06247711 C61.2207563 -0.08354414 72.56569571 -0.08807123 83.91070346 -0.08628923 C93.13147242 -0.08498222 102.35222542 -0.08878263 111.57299137 -0.09621429 C114.22782808 -0.09831346 116.8826648 -0.10041106 119.53750151 -0.10250711 C120.19751352 -0.10303111 120.85752553 -0.1035551 121.53753791 -0.10409497 C140.10053851 -0.11867793 158.66353341 -0.12696092 177.22653961 -0.12234497 C177.92630108 -0.12217302 178.62606255 -0.12200106 179.34702891 -0.1218239 C182.89365786 -0.12093501 186.44028681 -0.1199902 189.98691574 -0.11902589 C190.69128079 -0.11883485 191.39564584 -0.11864382 192.12135529 -0.118447 C193.5457527 -0.11805991 194.97015012 -0.11766958 196.39454753 -0.11727602 C218.55622207 -0.11130652 240.71779218 -0.12674215 262.87944317 -0.15888214 C287.78169202 -0.19496611 312.68387466 -0.2142908 337.5861513 -0.20934343 C350.7700601 -0.20709779 363.95386537 -0.21235592 377.13775349 -0.23723602 C388.361895 -0.25823723 399.58587623 -0.26185276 410.8100243 -0.24293643 C416.53684771 -0.23377137 422.26337217 -0.23265953 427.99017239 -0.25329208 C433.23408648 -0.27197595 438.47745623 -0.26752719 443.72134944 -0.24474627 C445.6169995 -0.24055402 447.51269109 -0.24478146 449.40829728 -0.25834221 C469.55162015 -0.39261379 469.55162015 -0.39261379 477.65204936 7.13849497 C484.21865583 14.00261649 485.2069022 20.98241482 485.15164471 30.11759186 C485.15972301 31.72293261 485.15972301 31.72293261 485.16796452 33.36070448 C485.18225371 36.9411258 485.17513778 40.52117791 485.16801739 44.10161591 C485.17372041 46.67091926 485.18068441 49.24022009 485.18881512 51.80951691 C485.20599085 58.06041863 485.20684572 64.31121978 485.20160221 70.56213897 C485.19755709 75.64391246 485.19900813 80.72565628 485.20435047 85.80742836 C485.20509889 86.53131479 485.20584732 87.25520122 485.20661842 88.00102361 C485.20814993 89.47170103 485.20968828 90.94237844 485.21123338 92.41305584 C485.22495392 106.19746393 485.21952382 119.98181522 485.20804817 133.76622201 C485.19811561 146.37015553 485.2110576 158.97394225 485.23498236 171.57785314 C485.25937879 184.52807076 485.26897994 197.47822004 485.26232964 210.42846018 C485.2588387 217.69564843 485.26106118 224.96272379 485.27858067 232.22989464 C485.29484994 239.06306868 485.29011255 245.89595785 485.27127552 252.72912407 C485.26758508 255.23652085 485.27071127 257.74393835 485.28116131 260.25131607 C485.29434089 263.6750833 485.28284923 267.09791752 485.2651701 270.52164459 C485.2747751 271.51299548 485.28438011 272.50434636 485.29427618 273.52573818 C485.2139022 281.0949606 483.37678351 286.26224307 478.51396465 292.07061005 C471.62469435 297.86386008 466.10537645 300.53465159 457.05135536 300.52012444 C456.25397741 300.52277626 455.45659947 300.52542809 454.63505855 300.52816027 C451.94054301 300.53587125 449.2460729 300.53641313 446.55154705 300.53701019 C444.60917814 300.54102364 442.66681007 300.54546166 440.72444302 300.55028975 C435.36898497 300.56227437 430.01353594 300.56790808 424.65806711 300.5724709 C418.8889525 300.57841987 413.11984871 300.5900315 407.35074139 300.60076141 C393.40892579 300.62530194 379.4671066 300.63991516 365.52527604 300.65282148 C361.58877029 300.65653226 357.6522649 300.66050559 353.71575952 300.66457415 C329.28124903 300.68980992 304.84673865 300.71188362 280.41221809 300.72430229 C274.75041419 300.72722363 269.08861031 300.73019115 263.42680645 300.7332077 C262.72339695 300.73357861 262.01998745 300.73394952 261.29526251 300.73433167 C238.49231757 300.74648546 215.68944985 300.77742632 192.88654118 300.81912923 C168.77982342 300.86313618 144.67315171 300.88883714 120.56639344 300.89422286 C107.42489077 300.89763889 94.28350991 300.90941681 81.14204502 300.94232559 C69.95075764 300.97030444 58.75961702 300.98133489 47.56829738 300.97013013 C41.85769397 300.96493797 36.147398 300.96786688 30.4368391 300.99259567 C25.2075839 301.01505132 19.97885763 301.01437659 14.74959338 300.9953918 C12.85920085 300.99258665 10.96877272 300.99821884 9.0784375 301.01320474 C-2.42626679 301.09882317 -10.96183998 300.70253655 -20.11103535 292.94561005 C-24.33819715 287.84815022 -27.35317909 283.67986845 -27.37304974 276.95014858 C-27.37812428 276.03769278 -27.38319882 275.12523699 -27.38842714 274.18513101 C-27.38917377 272.67932792 -27.38917377 272.67932792 -27.38993549 271.14310455 C-27.39431775 270.07770622 -27.3987 269.01230788 -27.40321505 267.91462475 C-27.41662348 264.32656276 -27.42278655 260.73852534 -27.42890644 257.15044403 C-27.43680586 254.5849776 -27.44507471 252.01951229 -27.45368671 249.45404816 C-27.47766153 241.74143245 -27.49283856 234.02881795 -27.50574678 226.31617674 C-27.50945927 224.13717098 -27.51343247 221.95816586 -27.51749945 219.77916074 C-27.54273932 206.24383475 -27.56478949 192.70850774 -27.57722759 179.17316341 C-27.58015723 176.03798608 -27.5831189 172.90280878 -27.586133 169.76763153 C-27.58687905 168.98841007 -27.5876251 168.20918861 -27.58839376 167.40635438 C-27.60104051 154.79057208 -27.63425429 142.17493093 -27.67593484 129.55921458 C-27.71839092 116.6023482 -27.74192696 103.64555399 -27.74714816 90.68861824 C-27.75055839 83.41566469 -27.76226738 76.14293161 -27.79525089 68.87004662 C-27.82624146 62.02541566 -27.83164762 55.18117442 -27.81986713 48.33648491 C-27.81964629 45.82669137 -27.82796041 43.31688009 -27.84552097 40.80714798 C-27.86822504 37.37497122 -27.85991001 33.94418565 -27.84403706 30.51200104 C-27.85791914 29.52374736 -27.87180123 28.53549368 -27.88610399 27.51729292 C-27.79892652 19.84254861 -25.74777033 13.22288717 -20.48059785 7.46369165 C-14.45430662 1.81500453 -8.13867007 -0.07103387 0 0 Z M-5.23603535 24.38311005 C-5.5380676 26.31415959 -5.5380676 26.31415959 -5.48771763 28.55919647 C-5.49293312 29.43976086 -5.49814862 30.32032524 -5.50352216 31.22757339 C-5.49906071 32.20090244 -5.49459927 33.17423149 -5.49000263 34.17705536 C-5.49312261 35.20640827 -5.49624259 36.23576118 -5.49945712 37.29630661 C-5.50747595 40.76800656 -5.50109837 44.23953359 -5.49482441 47.71123505 C-5.49753255 50.19101311 -5.50109247 52.67079037 -5.50544453 55.1505661 C-5.51364059 61.20027533 -5.51240908 67.24991594 -5.50661924 73.29962254 C-5.50210934 78.21470357 -5.50148693 83.1297707 -5.50366688 88.04485321 C-5.50397334 88.74339582 -5.50427981 89.44193842 -5.50459556 90.16164899 C-5.50523499 91.58055846 -5.50588342 92.99946793 -5.50654075 94.4183774 C-5.51224896 107.73521775 -5.50567846 121.0520306 -5.49494001 134.36886644 C-5.48600405 145.80461767 -5.48755596 157.2403283 -5.49677753 168.6760788 C-5.50747151 181.94404901 -5.51169959 195.2119951 -5.50555301 208.47996902 C-5.50491588 209.89376831 -5.50428714 211.30756759 -5.50366688 212.72136688 C-5.50335833 213.41705127 -5.50304978 214.11273566 -5.50273187 214.82950139 C-5.50100231 219.74080943 -5.50392565 224.65210222 -5.50862598 229.5634079 C-5.5148087 236.1690673 -5.51043052 242.77466164 -5.49883747 249.38031769 C-5.49618272 251.81121441 -5.49696976 254.24211757 -5.5013628 256.67301178 C-5.50678762 259.97848495 -5.50002151 263.28370773 -5.49000263 266.58916473 C-5.49446408 267.56249378 -5.49892552 268.53582283 -5.50352216 269.5386467 C-5.49830666 270.41921108 -5.49309117 271.29977547 -5.48771763 272.20702362 C-5.48739292 272.97069622 -5.48706822 273.73436882 -5.48673368 274.52118301 C-5.39454125 276.62888841 -5.39454125 276.62888841 -3.23603535 278.38311005 C-0.70430635 278.58014376 1.71801523 278.65084989 4.25093365 278.63479233 C5.42860448 278.63915265 5.42860448 278.63915265 6.63006663 278.64360106 C9.28887026 278.65096157 11.94744746 278.64392976 14.60624981 278.63707733 C16.52045911 278.63937938 18.43466754 278.64255417 20.34887409 278.64653182 C25.63084821 278.65492368 30.91275057 278.65073474 36.19472504 278.64455938 C41.88258457 278.64005375 47.57043134 278.64700922 53.25828838 278.65251923 C64.40943767 278.66143516 75.5605601 278.65948145 86.71171045 278.65369394 C95.77057364 278.64918608 104.82942928 278.64856074 113.88829327 278.65074158 C115.17521246 278.65104804 116.46213165 278.65135451 117.78804839 278.65167026 C120.40200186 278.65230968 123.01595533 278.65295811 125.6299088 278.65361544 C149.46877853 278.65916226 173.30763297 278.65339979 197.14650026 278.64293025 C218.92459521 278.63343851 240.70266678 278.63428775 262.48076153 278.64385223 C286.9291243 278.65455347 311.37747205 278.6587758 335.82583714 278.65262771 C338.43043677 278.65199058 341.0350364 278.65136183 343.63963604 278.65074158 C344.9213118 278.65043303 346.20298757 278.65012448 347.52350199 278.64980657 C356.57658013 278.6480762 365.62965 278.65100209 374.68272686 278.65570068 C385.70808564 278.66129686 396.73341592 278.6598198 407.75877142 278.6491392 C413.38928993 278.64386539 419.01976084 278.64185465 424.65027905 278.6484375 C429.79698026 278.65436391 434.94358943 278.65117704 440.0902822 278.6404824 C441.9596929 278.63823423 443.82911125 278.63941602 445.69851708 278.64423397 C448.22478975 278.65024919 450.7507403 278.64414578 453.27699566 278.63479233 C454.01558622 278.63947466 454.75417678 278.64415699 455.51514888 278.64898121 C459.59025534 278.73947695 459.59025534 278.73947695 462.76396465 276.38311005 C463.06599691 274.4520605 463.06599691 274.4520605 463.01564693 272.20702362 C463.02086243 271.32645924 463.02607792 270.44589485 463.03145146 269.5386467 C463.02699002 268.56531765 463.02252858 267.5919886 463.01793194 266.58916473 C463.02105192 265.55981182 463.0241719 264.53045891 463.02738643 263.46991348 C463.03540526 259.99821353 463.02902767 256.5266865 463.02275372 253.05498505 C463.02546185 250.57520698 463.02902178 248.09542972 463.03337383 245.61565399 C463.04156989 239.56594476 463.04033839 233.51630416 463.03454855 227.46659756 C463.03003865 222.55151652 463.02941624 217.63644939 463.03159618 212.72136688 C463.03205588 211.67355297 463.03205588 211.67355297 463.03252487 210.6045711 C463.0331643 209.18566163 463.03381272 207.76675216 463.03447005 206.34784269 C463.04017826 193.03100234 463.03360777 179.71418949 463.02286932 166.39735365 C463.01393336 154.96160242 463.01548526 143.52589179 463.02470684 132.0901413 C463.03540082 118.82217108 463.03962889 105.55422499 463.03348231 92.28625107 C463.03284519 90.87245179 463.03221645 89.4586525 463.03159618 88.04485321 C463.03128763 87.34916882 463.03097908 86.65348444 463.03066118 85.9367187 C463.02893162 81.02541066 463.03185496 76.11411787 463.03655529 71.20281219 C463.042738 64.59715279 463.03835983 57.99155846 463.02676678 51.3859024 C463.02411202 48.95500568 463.02489907 46.52410252 463.02929211 44.09320831 C463.03471693 40.78773514 463.02795082 37.48251236 463.01793194 34.17705536 C463.02239338 33.20372631 463.02685483 32.23039726 463.03145146 31.22757339 C463.02623597 30.34700901 463.02102047 29.46644463 463.01564693 28.55919647 C463.01532223 27.79552387 463.01499753 27.03185127 463.01466298 26.24503708 C462.92247056 24.13733169 462.92247056 24.13733169 460.76396465 22.38311005 C458.23223566 22.18607633 455.80991407 22.1153702 453.27699566 22.13142776 C452.49188177 22.12852088 451.70676789 22.125614 450.89786267 22.12261903 C448.23905904 22.11525853 445.58048185 22.12229033 442.9216795 22.12914276 C441.00747019 22.12684072 439.09326177 22.12366592 437.17905521 22.11968827 C431.8970811 22.11129641 426.61517873 22.11548535 421.33320427 22.12166071 C415.64534473 22.12616634 409.95749796 22.11921087 404.26964092 22.11370087 C393.11849164 22.10478493 381.96736921 22.10673864 370.81621885 22.11252615 C361.75735566 22.11703401 352.69850003 22.11765935 343.63963604 22.11547852 C342.35271685 22.11517205 341.06579766 22.11486558 339.73988092 22.11454983 C337.12592745 22.11391041 334.51197397 22.11326199 331.89802051 22.11260465 C308.05915078 22.10705783 284.22029634 22.11282031 260.38142905 22.12328984 C238.60333409 22.13278158 216.82526253 22.13193235 195.04716778 22.12236786 C170.598805 22.11166663 146.15045726 22.10744429 121.70209217 22.11359239 C119.09749254 22.11422952 116.4928929 22.11485826 113.88829327 22.11547852 C112.6066175 22.11578707 111.32494174 22.11609562 110.00442731 22.11641352 C100.95134917 22.11814389 91.8982793 22.11521801 82.84520245 22.11051941 C71.81984367 22.10492324 60.79451338 22.10640029 49.76915789 22.1170809 C44.13863938 22.12235471 38.50816847 22.12436544 32.87765026 22.11778259 C27.73094905 22.11185618 22.58433988 22.11504306 17.4376471 22.1257377 C15.56823641 22.12798587 13.69881806 22.12680407 11.82941222 22.12198612 C9.30313955 22.1159709 6.77718901 22.12207431 4.25093365 22.13142776 C3.51234308 22.12674543 2.77375252 22.1220631 2.01278043 22.11723888 C-2.06232604 22.02674314 -2.06232604 22.02674314 -5.23603535 24.38311005 Z " fill="#000000" transform="translate(27.236035346984863,49.61688995361328)"/>
<path d="M0 0 C8.55998551 6.27474051 13.36896629 14.15024016 16.15234375 24.2734375 C17.19817438 24.27067212 18.24400501 24.26790674 19.32152748 24.26505756 C44.75978654 24.19848181 70.19803432 24.14917109 95.63636208 24.11800098 C107.9381075 24.10252701 120.2397954 24.08142728 132.54150391 24.04711914 C143.26269963 24.01723311 153.9838537 23.99786636 164.70508993 23.99117202 C170.38277745 23.98725843 176.06034579 23.97804978 181.73799515 23.95624733 C187.08130892 23.93589486 192.42445434 23.92960124 197.76780319 23.93411446 C199.72938705 23.93328871 201.6909765 23.92731574 203.65252686 23.91582108 C206.33062084 23.90089644 209.00807906 23.90448382 211.68618774 23.91267395 C212.85060235 23.89956616 212.85060235 23.89956616 214.03854048 23.88619357 C218.81629468 23.92568962 222.11968818 24.68694767 226.15234375 27.2734375 C228.96959608 31.499316 228.95192759 35.30968438 228.15234375 40.2734375 C225.96211457 43.09768038 224.32217168 44.68852353 221.15234375 46.2734375 C218.46934902 46.36919433 215.81242323 46.40356256 213.12924194 46.39369202 C211.87098632 46.39497365 211.87098632 46.39497365 210.58731139 46.39628118 C207.76049745 46.39793577 204.93374211 46.39241494 202.10693359 46.38696289 C200.08695985 46.38668099 198.06698601 46.38683881 196.04701233 46.3874054 C190.5493633 46.38769325 185.05173592 46.38179843 179.55409193 46.37483144 C173.81386391 46.36859594 168.07363543 46.36799394 162.33340454 46.36680603 C151.45722278 46.3636933 140.58105103 46.35548068 129.70487368 46.34545654 C117.32537856 46.33429361 104.94588297 46.3287845 92.56638408 46.32376111 C67.09503175 46.31329803 41.62368831 46.2956997 16.15234375 46.2734375 C15.95753418 46.88614502 15.76272461 47.49885254 15.56201172 48.13012695 C15.30049316 48.93667725 15.03897461 49.74322754 14.76953125 50.57421875 C14.51284668 51.37255127 14.25616211 52.17088379 13.99169922 52.9934082 C12.83089864 56.14661257 11.17286517 58.59921797 9.15234375 61.2734375 C8.47171875 62.2428125 7.79109375 63.2121875 7.08984375 64.2109375 C0.41858863 72.01117425 -9.69549567 76.78273676 -19.765625 77.5859375 C-31.89646376 78.07872716 -42.31791706 76.29023117 -51.8203125 68.1796875 C-56.94686077 63.35934924 -60.69591533 59.01379946 -63.55078125 52.5078125 C-63.98551758 51.52522461 -64.42025391 50.54263672 -64.86816406 49.53027344 C-65.19139648 48.78551758 -65.51462891 48.04076172 -65.84765625 47.2734375 C-67.47189908 47.26985497 -67.47189908 47.26985497 -69.12895489 47.26620007 C-95.45988312 47.20744133 -121.79071959 47.13158101 -148.12154675 47.03772259 C-160.85486716 46.99273075 -173.58815938 46.95332389 -186.3215332 46.92700195 C-197.41816202 46.90404933 -208.51470191 46.87068196 -219.61126024 46.82473594 C-225.48840907 46.80076685 -231.36546962 46.78206222 -237.24266624 46.77582359 C-242.77235176 46.76978944 -248.30181129 46.74985002 -253.83141327 46.71916199 C-255.86273189 46.71035496 -257.89408 46.70666467 -259.92541695 46.70842934 C-262.69587668 46.71007646 -265.46564291 46.69343077 -268.23600769 46.67216492 C-269.04243357 46.67701249 -269.84885946 46.68186007 -270.67972249 46.68685454 C-275.24189004 46.62894163 -278.24395908 46.14458647 -281.84765625 43.2734375 C-284.66762035 39.04349134 -284.63996813 35.24123302 -283.84765625 30.2734375 C-281.32089586 26.92718726 -279.80832083 25.59365903 -275.84765625 24.2734375 C-273.04884989 24.17945589 -270.27529209 24.14314621 -267.47651672 24.15318298 C-266.6123239 24.15232856 -265.74813108 24.15147413 -264.85775059 24.15059382 C-261.95112604 24.14894178 -259.04455872 24.15445591 -256.13793945 24.15991211 C-254.05870566 24.16019407 -251.97947177 24.16003608 -249.90023804 24.1594696 C-244.24562867 24.15918196 -238.59104039 24.16507335 -232.93643594 24.17204356 C-227.03071972 24.17828261 -221.12500306 24.17888134 -215.21928406 24.18006897 C-204.03147522 24.18318065 -192.84367612 24.19139186 -181.65587157 24.20141846 C-168.92085817 24.21258463 -156.18584431 24.21809132 -143.45082724 24.22311389 C-117.24976484 24.2335746 -91.04871109 24.25117091 -64.84765625 24.2734375 C-64.70666504 23.33556396 -64.56567383 22.39769043 -64.42041016 21.43139648 C-62.98037773 13.49157576 -57.12566446 6.16430485 -50.84765625 1.2734375 C-34.65666368 -9.08210133 -16.63764546 -10.08757104 0 0 Z M-40.22265625 22.7109375 C-43.75923525 27.24698447 -45.40141759 31.12431314 -45.22265625 37.0234375 C-44.20139768 43.15098893 -41.24564509 48.64601364 -36.22265625 52.3359375 C-30.69818365 55.50739399 -26.10340723 55.93242611 -19.84765625 55.2734375 C-12.9951801 53.19872586 -9.09340718 49.12329624 -5.53515625 43.0234375 C-3.88200967 36.41085119 -4.03994122 30.10122785 -7.4375 24.09765625 C-10.65676481 19.93312255 -14.87757685 16.93013063 -19.84765625 15.2734375 C-28.25791689 14.2615521 -34.52622759 16.39383259 -40.22265625 22.7109375 Z " fill="#000000" transform="translate(283.84765625,384.7265625)"/>
<path d="M0 0 C7.51276579 3.69975401 14.10167013 9.26594279 20.74829102 14.31567383 C25.37394272 17.82054665 30.0744458 21.17691493 34.875 24.4375 C40.63029768 28.3477336 46.30677071 32.34979256 51.9375 36.4375 C57.78685907 40.68303287 63.65400177 44.89958583 69.5625 49.0625 C70.25400146 49.54992676 70.94550293 50.03735352 71.65795898 50.53955078 C75.27758291 53.08867673 78.90138932 55.63176373 82.52734375 58.171875 C105.06961242 73.98099229 105.06961242 73.98099229 107 79 C107.64911765 83.35836135 106.87706057 85.80475834 104.37182617 89.39624023 C101.69224333 92.52885808 98.30898106 94.73181821 94.9375 97.0625 C94.14746582 97.62122803 93.35743164 98.17995605 92.54345703 98.75561523 C86.07446916 103.3111956 79.52426812 107.75003067 72.97509766 112.18920898 C67.13201342 116.16920259 61.46837069 120.34367448 55.84277344 124.62353516 C50.71599057 128.50765547 45.46340757 132.16896297 40.14428711 135.78344727 C34.9925672 139.29304468 29.92265117 142.90503738 24.875 146.5625 C23.74529785 147.37690552 23.74529785 147.37690552 22.59277344 148.20776367 C19.04247312 150.77182664 15.51495455 153.35775973 12.03125 156.01171875 C11.41137207 156.47570068 10.79149414 156.93968262 10.15283203 157.41772461 C8.4973749 158.65829445 6.85365591 159.9144856 5.2109375 161.171875 C1.19121409 163.46047665 -1.39572937 163.80166219 -6 164 C-9.57584257 162.7855629 -11.40214671 161.81107632 -13.64415932 158.76945496 C-15.22707385 155.53617649 -15.37719311 153.40283729 -15.38095093 149.8137207 C-15.3894104 148.56877838 -15.39786987 147.32383606 -15.40658569 146.04116821 C-15.40075333 144.66937124 -15.39460885 143.29757557 -15.38818359 141.92578125 C-15.39225056 140.47504278 -15.39759314 139.0243074 -15.40411377 137.57357788 C-15.41777845 133.639702 -15.4124923 129.70606242 -15.40297651 125.77218246 C-15.3953755 121.65320962 -15.40242675 117.53425685 -15.40713501 113.4152832 C-15.41259128 106.49849825 -15.40540435 99.58180942 -15.39111328 92.66503906 C-15.37478698 84.67096789 -15.38007558 76.67712626 -15.3965925 68.68306065 C-15.41021105 61.81667651 -15.41212523 54.95036144 -15.40427649 48.08396816 C-15.399602 43.98421402 -15.39896895 39.88456774 -15.40888596 35.78482056 C-15.41755875 31.93026623 -15.4115282 28.07600756 -15.39420319 24.22148514 C-15.39023999 22.80776078 -15.39136957 21.3940115 -15.39799118 19.98029709 C-15.40620247 18.04896693 -15.39407427 16.11758233 -15.38095093 14.1862793 C-15.37981985 13.10597946 -15.37868877 12.02567963 -15.37752342 10.91264343 C-14.81217718 6.55092193 -13.14823217 3.92496481 -9.75 1.1875 C-5.98381375 -0.4388077 -4.10511305 -0.66211501 0 0 Z M7 33 C7 65.34 7 97.68 7 131 C12.67226057 127.79426489 12.67226057 127.79426489 17.98828125 124.22265625 C18.6848584 123.71613525 19.38143555 123.20961426 20.09912109 122.68774414 C20.82953613 122.15141357 21.55995117 121.61508301 22.3125 121.0625 C23.91533656 119.89579484 25.51820194 118.72912926 27.12109375 117.5625 C27.93304199 116.96953125 28.74499023 116.3765625 29.58154297 115.765625 C39.90496446 108.22888118 50.27950415 100.76876653 60.75 93.4375 C61.5838623 92.85363525 62.41772461 92.26977051 63.27685547 91.66821289 C67.48647778 88.72920135 71.71439052 85.8271198 76 83 C74.85305404 79.55916213 74.1988862 79.18086394 71.2734375 77.25 C70.49661621 76.72978271 69.71979492 76.20956543 68.91943359 75.67358398 C68.07977051 75.12130127 67.24010742 74.56901855 66.375 74 C64.62363421 72.82625411 62.87364864 71.65044633 61.125 70.47265625 C60.25359375 69.88629395 59.3821875 69.29993164 58.484375 68.69580078 C55.05488212 66.35487531 51.7072182 63.91416095 48.375 61.4375 C42.43679868 57.03313367 36.42342781 52.74878112 30.3684082 48.5065918 C26.76774242 45.9770547 23.19383648 43.4193848 19.66015625 40.796875 C18.97050781 40.28511719 18.28085938 39.77335937 17.5703125 39.24609375 C16.25850627 38.26861946 14.94976393 37.28701612 13.64453125 36.30078125 C10.64759453 33.81437297 10.64759453 33.81437297 7 33 Z " fill="#000000" transform="translate(210,118)"/>
</svg>
