<?xml version="1.0" encoding="UTF-8"?>
<svg version="1.1" xmlns="http://www.w3.org/2000/svg" width="512" height="512">
<path d="M0 0 C0.83802824 -0.00465992 1.67605649 -0.00931984 2.53947952 -0.01412097 C5.36034008 -0.02611492 8.1807229 -0.01665859 11.00158787 -0.00736332 C13.03928136 -0.01153431 15.07697253 -0.01701052 17.11465937 -0.02368313 C22.72420242 -0.03818726 28.33359917 -0.03387752 33.9431504 -0.02651632 C39.98891938 -0.02179923 46.03465604 -0.03428153 52.08041477 -0.04453373 C63.24309685 -0.06075957 74.4057334 -0.06316111 85.56842104 -0.05822874 C95.88068872 -0.0536743 106.19293899 -0.05426732 116.50520611 -0.06006908 C117.8876492 -0.06082594 119.2700923 -0.06158192 120.6525354 -0.06233703 C122.73566659 -0.0634822 124.81879777 -0.06463208 126.90192895 -0.06579627 C146.27299701 -0.07650379 165.64405925 -0.08122393 185.01512909 -0.07332611 C185.74558067 -0.07302894 186.47603225 -0.07273176 187.22861872 -0.07242559 C193.1606752 -0.06997657 199.0927316 -0.06736502 205.024788 -0.06474145 C228.1662165 -0.05463812 251.30757244 -0.06299502 274.44899082 -0.086236 C300.44036409 -0.11229687 326.43169368 -0.1251597 352.4230805 -0.11804825 C355.19340614 -0.11733217 357.96373178 -0.11665779 360.73405743 -0.1160078 C361.41619672 -0.115838 362.09833602 -0.11566819 362.80114621 -0.11549323 C373.10684724 -0.11318841 383.41250778 -0.12117595 393.71819973 -0.13429928 C405.43581623 -0.14919382 417.15335397 -0.14970079 428.87097424 -0.13222837 C434.85242798 -0.12368835 440.83370005 -0.1216419 446.81514454 -0.13687992 C452.28707906 -0.15064768 457.75867492 -0.14606624 463.23058946 -0.12664068 C465.21370893 -0.12285596 467.19685502 -0.12587314 469.17995095 -0.13625234 C471.86945888 -0.14933155 474.55778215 -0.13792031 477.24723816 -0.12025452 C478.02259349 -0.12990503 478.79794882 -0.13955554 479.59679976 -0.14949849 C484.77779529 -0.07931299 487.75824532 1.01146933 491.68653965 4.38031673 C494.46014991 7.9691816 495.06215083 10.5638241 495.06685638 15.05444145 C495.07529633 16.19280006 495.08373627 17.33115867 495.09243196 18.504013 C495.08642192 19.74991427 495.08041187 20.99581554 495.0742197 22.2794714 C495.07839299 23.62007518 495.08387048 24.96067543 495.09053952 26.30126911 C495.10501366 29.98397051 495.10074334 33.66644849 495.0933727 37.34916222 C495.08864818 41.32129949 495.10114452 45.29338792 495.11139011 49.26550961 C495.12859746 57.04671276 495.12941413 64.82783523 495.12417721 72.60905247 C495.12013792 78.93278467 495.12157619 85.25649299 495.12692547 91.58022404 C495.12767389 92.47980665 495.12842231 93.37938927 495.12919341 94.30623196 C495.13072487 96.13365491 495.13226322 97.96107786 495.13380838 99.78850079 C495.14754039 116.93063927 495.14209078 134.07273213 495.13062317 151.21486957 C495.12068975 166.90157012 495.1336321 182.58815274 495.15755736 198.2748351 C495.18193258 214.37771137 495.19156014 230.48053266 495.18490463 246.58342701 C495.18140894 255.62568215 495.18366755 264.66784657 495.20115566 273.71008778 C495.21585792 281.40746329 495.21653902 289.10468419 495.19908475 296.8020566 C495.19055606 300.72992336 495.18847049 304.65751371 495.20373631 308.58536625 C495.21753816 312.18103391 495.21287904 315.77618719 495.19349707 319.37182475 C495.18793465 321.28884992 495.20204615 323.20590099 495.21685117 325.12287706 C495.16218717 331.47787468 495.08134439 335.60802498 490.68653965 340.38031673 C487.18138162 343.06755796 484.63084444 343.7604563 480.25367832 343.81268978 C479.19295612 343.83248394 478.13223392 343.8522781 477.03936863 343.87267208 C475.33911282 343.88225697 475.33911282 343.88225697 473.6045084 343.89203548 C471.85053493 343.91896229 471.85053493 343.91896229 470.06112766 343.94643307 C466.33213483 344.00054731 462.60327011 344.03443641 458.87403965 344.06781673 C456.34342286 344.1009887 453.81282298 344.13547824 451.28224277 344.17133236 C445.08378993 344.25627463 438.88532054 344.32462002 432.68653965 344.38031673 C438.48157199 350.83608059 444.3144822 357.25092131 450.2060709 363.61859798 C456.5959087 370.73295283 456.5959087 370.73295283 457.12403965 374.50531673 C456.63191154 377.73930145 456.19669835 378.41625566 453.68653965 380.38031673 C451.81636143 380.78145504 451.81636143 380.78145504 449.69337559 380.81610775 C448.89534519 380.83524731 448.0973148 380.85438686 447.27510166 380.87410641 C446.41571995 380.87744488 445.55633823 380.88078335 444.67091465 380.88422298 C443.78172337 380.89420818 442.89253208 380.90419338 441.97639561 380.91448116 C440.09352871 380.92967156 438.21058104 380.93670667 436.32765293 380.93622494 C433.46023014 380.94276272 430.59631453 380.99716394 427.7295084 381.05414486 C425.89748895 381.06295207 424.0654531 381.06890284 422.23341465 381.07172298 C421.38212986 381.09327953 420.53084507 381.11483608 419.65376377 381.13704586 C413.99744053 381.07264329 411.11819995 379.80891997 407.05725193 375.85199642 C406.60491688 375.36634212 406.15258183 374.88068783 405.68653965 374.38031673 C405.09485996 373.76027767 404.50318027 373.14023861 403.8935709 372.50141048 C403.43337559 371.94582455 402.97318027 371.39023861 402.49903965 370.81781673 C398.88094112 366.5641063 395.10594314 362.47377581 391.3010416 358.38788509 C390.82110752 357.8710516 390.34117344 357.3542181 389.8466959 356.82172298 C389.36704396 356.31729494 388.88739202 355.8128669 388.39320517 355.29315317 C386.68653965 353.38031673 386.68653965 353.38031673 385.03167391 351.11756289 C381.35360536 346.317623 381.35360536 346.317623 376.13347816 343.53298736 C373.12594335 343.19775181 370.22833655 343.14170771 367.20228672 343.18363094 C366.06334571 343.1639465 364.92440471 343.14426206 363.75095034 343.12398112 C359.94280658 343.06944492 356.13759914 343.07905019 352.32911777 343.08881283 C349.59520652 343.06840359 346.86148997 343.03477115 344.12770176 343.00208187 C337.47643222 342.93131219 330.82590303 342.91016048 324.17429024 342.90859549 C318.76261747 342.9070488 313.35118331 342.8908755 307.93957615 342.86446667 C292.57325367 342.79098378 277.20749764 342.7540537 261.84099966 342.76563792 C261.0133677 342.76626025 260.18573574 342.76688258 259.33302402 342.76752377 C258.50437287 342.768154 257.67572171 342.76878424 256.82195991 342.76943357 C243.40788432 342.77743803 229.99589352 342.69930263 216.58238608 342.58149962 C202.78670653 342.46129939 188.9920359 342.40499446 175.19582033 342.41477931 C167.45920907 342.41900264 159.72470064 342.39767616 151.98855686 342.30781841 C145.39771418 342.2317961 138.80998219 342.21583807 132.21891457 342.27517454 C128.85955102 342.30376169 125.51085872 342.29673199 122.15127659 342.23269939 C106.94176983 341.64494002 106.94176983 341.64494002 93.68835545 348.02224255 C90.18204749 351.46918228 87.17996721 355.18212825 84.31369781 359.17027688 C81.66384934 362.76935586 78.66557741 366.05355485 75.68653965 369.38031673 C74.9182584 370.26461361 74.14997715 371.14891048 73.35841465 372.06000423 C72.7241959 372.78445736 72.08997715 373.50891048 71.43653965 374.25531673 C70.46974277 375.36519955 70.46974277 375.36519955 69.48341465 376.49750423 C67.46249024 378.61508155 65.77029558 380.23138833 62.78944492 380.64101315 C61.7204697 380.64792423 61.7204697 380.64792423 60.62989902 380.65497494 C59.81895786 380.66450695 59.0080167 380.67403896 58.17250156 380.68385983 C56.86460667 380.68249271 56.86460667 380.68249271 55.53028965 380.68109798 C54.63161167 380.68538311 53.73293369 380.68966824 52.80702305 380.69408321 C50.90733273 380.69982517 49.00762042 380.70032776 47.10792637 380.69599056 C44.19755284 380.6928287 41.28819386 380.7162977 38.3779459 380.74164486 C36.5328951 380.74391763 34.68784156 380.74462145 32.84278965 380.74359798 C31.53489475 380.75741261 31.53489475 380.75741261 30.20057774 380.77150631 C28.98416599 380.76216312 28.98416599 380.76216312 27.74318027 380.75263119 C26.67420506 380.75357533 26.67420506 380.75357533 25.58363438 380.75453854 C23.10148061 380.26490771 22.21757805 379.36201662 20.68653965 377.38031673 C20.1904459 374.55219173 20.1904459 374.55219173 20.68653965 371.38031673 C22.27892429 369.20157737 23.72938914 367.5000089 25.62403965 365.63031673 C26.63496809 364.58263323 27.64537679 363.53444799 28.65528965 362.48578548 C29.16446934 361.9667767 29.67364902 361.44776791 30.1982584 360.91303158 C32.40135109 358.64416413 34.51273311 356.29692353 36.62403965 353.94281673 C37.65851231 352.80006283 37.65851231 352.80006283 38.7138834 351.63422298 C40.78108718 349.27228917 42.73271936 346.83638093 44.68653965 344.38031673 C44.03587528 344.3766711 43.38521091 344.37302547 42.71482944 344.36926937 C35.93355374 344.32741101 29.15295273 344.25804137 22.37208652 344.1727972 C19.84253282 344.14459741 17.31289116 344.12337801 14.78321934 344.10932064 C11.14376419 344.08787845 7.5053655 344.04121814 3.86622715 343.98969173 C2.73788456 343.9884631 1.60954197 343.98723446 0.44700718 343.98596859 C-5.5766012 343.87398286 -9.70975099 343.69588892 -14.31346035 339.38031673 C-16.93263808 335.69979625 -17.68906512 333.20293054 -17.69377708 328.70619202 C-17.70221703 327.56783341 -17.71065697 326.42947479 -17.71935266 325.25662047 C-17.71334262 324.0107192 -17.70733257 322.76481793 -17.7011404 321.48116207 C-17.70531369 320.14055829 -17.71079118 318.79995804 -17.71746022 317.45936435 C-17.73193436 313.77666296 -17.72766404 310.09418498 -17.7202934 306.41147125 C-17.71556888 302.43933398 -17.72806522 298.46724555 -17.73831081 294.49512386 C-17.75551816 286.71392071 -17.75633483 278.93279824 -17.75109791 271.151581 C-17.74705862 264.8278488 -17.74849689 258.50414048 -17.75384617 252.18040943 C-17.75459459 251.28082682 -17.75534301 250.3812442 -17.75611411 249.4544015 C-17.75764557 247.62697856 -17.75918392 245.79955561 -17.76072908 243.97213268 C-17.77446109 226.8299942 -17.76901148 209.68790134 -17.75754387 192.5457639 C-17.74761045 176.85906335 -17.7605528 161.17248073 -17.78447806 145.48579837 C-17.80885328 129.3829221 -17.81848084 113.2801008 -17.81182534 97.17720646 C-17.80832964 88.13495132 -17.81058825 79.0927869 -17.82807636 70.05054569 C-17.84277862 62.35317018 -17.84345972 54.65594928 -17.82600545 46.95857687 C-17.81747676 43.03071011 -17.81539119 39.10311976 -17.83065701 35.17526722 C-17.84445886 31.57959956 -17.83979974 27.98444628 -17.82041777 24.38880872 C-17.81485535 22.47178355 -17.82896685 20.55473248 -17.84377187 18.63775641 C-17.75225583 7.99850228 -17.75225583 7.99850228 -13.31346035 3.38031673 C-9.03925721 0.10957637 -5.19610161 -0.04501694 0 0 Z " fill="#595751" transform="translate(17.31346035003662,65.61968326568604)"/>
<path d="M0 0 C5.59721573 0.00233207 11.19442842 0.00254909 16.7916445 0.00148369 C18.01446976 0.00125384 18.01446976 0.00125384 19.26199856 0.00101934 C20.92250938 0.00069935 22.58302019 0.00037513 24.243531 0.00004675 C39.72262711 -0.00278487 55.20171725 0.00043195 70.68081237 0.00584712 C83.57102342 0.01022117 96.46122522 0.0095697 109.35143606 0.00492836 C195.05004252 -0.02511709 280.74228082 0.21684439 405.74303763 1.13529945 C405.84222348 6.43716504 405.91465517 11.73848563 405.96276419 17.04106117 C405.98282795 18.84324026 406.01008575 20.64535466 406.04479544 22.44731117 C406.09354591 25.04399081 406.11605845 27.63980674 406.13366263 30.23686195 C406.15430777 31.03709785 406.17495291 31.83733375 406.19622366 32.66181923 C406.19833029 37.96342504 405.24424875 40.92090393 401.74303763 45.13529945 C398.2378796 47.82254068 395.68734242 48.51543901 391.3101763 48.5676725 C390.2494541 48.58746666 389.1887319 48.60726082 388.09586661 48.6276548 C386.39561079 48.63723968 386.39561079 48.63723968 384.66100638 48.6470182 C383.49169073 48.6649694 382.32237509 48.68292061 381.11762564 48.70141578 C377.38863281 48.75553002 373.65976808 48.78941913 369.93053763 48.82279945 C367.39992084 48.85597142 364.86932096 48.89046096 362.33874075 48.92631508 C356.14028791 49.01125735 349.94181852 49.07960274 343.74303763 49.13529945 C349.53806997 55.59106331 355.37098017 62.00590402 361.26256888 68.3735807 C367.65240668 75.48793555 367.65240668 75.48793555 368.18053763 79.26029945 C367.68840952 82.49428417 367.25319633 83.17123837 364.74303763 85.13529945 C362.8728594 85.53643776 362.8728594 85.53643776 360.74987356 85.57109047 C359.95184317 85.59023002 359.15381277 85.60936958 358.33159964 85.62908912 C357.47221792 85.63242759 356.61283621 85.63576607 355.72741263 85.6392057 C354.83822134 85.6491909 353.94903006 85.6591761 353.03289358 85.66946388 C351.15002668 85.68465428 349.26707902 85.69168939 347.38415091 85.69120765 C344.51672812 85.69774544 341.65281251 85.75214666 338.78600638 85.80912758 C336.95398693 85.81793478 335.12195108 85.82388556 333.28991263 85.8267057 C332.43862784 85.84826225 331.58734305 85.8698188 330.71026175 85.89202858 C325.0539385 85.82762601 322.17469793 84.56390269 318.11374991 80.60697914 C317.66141485 80.12132484 317.2090798 79.63567055 316.74303763 79.13529945 C316.15135794 78.51526039 315.55967825 77.89522133 314.95006888 77.2563932 C314.25977591 76.4230143 314.25977591 76.4230143 313.55553763 75.57279945 C309.93743909 71.31908901 306.16244111 67.22875853 302.35753958 63.14286781 C301.63763846 62.36761757 301.63763846 62.36761757 300.90319388 61.5767057 C300.18371596 60.82006364 300.18371596 60.82006364 299.44970314 60.04813588 C297.74303763 58.13529945 297.74303763 58.13529945 296.08817188 55.87254561 C292.41010333 51.07260571 292.41010333 51.07260571 287.18997614 48.28797007 C284.18244132 47.95273453 281.28483452 47.89669042 278.2587847 47.93861366 C277.11984369 47.91892922 275.98090268 47.89924478 274.80744831 47.87896384 C270.99930456 47.82442764 267.19409711 47.8340329 263.38561575 47.84379555 C260.65170449 47.82338631 257.91798795 47.78975387 255.18419974 47.75706459 C248.5329302 47.6862949 241.88240101 47.6651432 235.23078822 47.6635782 C229.81911544 47.66203152 224.40768129 47.64585822 218.99607413 47.61944938 C203.62975165 47.54596649 188.26399561 47.50903642 172.89749764 47.52062064 C172.06986568 47.52124297 171.24223372 47.5218653 170.389522 47.52250648 C169.56087084 47.52313672 168.73221969 47.52376696 167.87845789 47.52441629 C154.4643823 47.53242075 141.0523915 47.45428535 127.63888405 47.33648234 C113.84320451 47.2162821 100.04853388 47.15997717 86.25231831 47.16976202 C78.51570704 47.17398535 70.78119862 47.15265888 63.04505484 47.06280113 C56.45421216 46.98677882 49.86648017 46.97082079 43.27541254 47.03015726 C39.916049 47.05874441 36.5673567 47.0517147 33.20777456 46.98768211 C17.99826781 46.39992274 17.99826781 46.39992274 4.74485342 52.77722526 C1.23854546 56.224165 -1.76353482 59.93711096 -4.62980421 63.9252596 C-7.27965269 67.52433858 -10.27792462 70.80853757 -13.25696237 74.13529945 C-14.02524362 75.01959633 -14.79352487 75.9038932 -15.58508737 76.81498695 C-16.5364155 77.90166664 -16.5364155 77.90166664 -17.50696237 79.01029945 C-18.15149362 79.75022133 -18.79602487 80.4901432 -19.46008737 81.25248695 C-21.48101178 83.37006427 -23.17320644 84.98637105 -26.1540571 85.39599586 C-26.86670725 85.40060325 -27.57935739 85.40521065 -28.313603 85.40995765 C-29.12454416 85.41948967 -29.93548532 85.42902168 -30.77100046 85.43884254 C-31.64293039 85.43793113 -32.51486032 85.43701973 -33.41321237 85.4360807 C-34.31189035 85.44036583 -35.21056833 85.44465095 -36.13647898 85.44906593 C-38.0361693 85.45480789 -39.93588161 85.45531048 -41.83557566 85.45097328 C-44.74594918 85.44781142 -47.65530817 85.47128041 -50.56555612 85.49662758 C-52.41060692 85.49890035 -54.25566046 85.49960417 -56.10071237 85.4985807 C-56.97264231 85.50779045 -57.84457224 85.5170002 -58.74292429 85.52648903 C-59.55386545 85.52026024 -60.36480661 85.51403145 -61.20032175 85.5076139 C-62.26929697 85.50855804 -62.26929697 85.50855804 -63.35986765 85.50952125 C-65.84202142 85.01989043 -66.72592397 84.11699934 -68.25696237 82.13529945 C-68.75305612 79.30717445 -68.75305612 79.30717445 -68.25696237 76.13529945 C-66.66457773 73.95656009 -65.21411288 72.25499161 -63.31946237 70.38529945 C-62.30853393 69.33761595 -61.29812523 68.28943071 -60.28821237 67.2407682 C-59.52444284 66.46225502 -59.52444284 66.46225502 -58.74524362 65.6680143 C-56.54215093 63.39914685 -54.43076892 61.05190625 -52.31946237 58.69779945 C-51.62981394 57.93596351 -50.9401655 57.17412758 -50.22961862 56.3892057 C-48.16241485 54.02727188 -46.21078267 51.59136365 -44.25696237 49.13529945 C-44.90762674 49.13165382 -45.55829111 49.12800819 -46.22867258 49.12425209 C-53.00994829 49.08239373 -59.79054929 49.01302409 -66.5714155 48.92777992 C-69.1009692 48.89958013 -71.63061086 48.87836072 -74.16028269 48.86430336 C-77.79973783 48.84286116 -81.43813652 48.79620085 -85.07727487 48.74467445 C-86.20561746 48.74344581 -87.33396005 48.74221718 -88.49649484 48.74095131 C-94.52010322 48.62896558 -98.65325302 48.45087164 -103.25696237 44.13529945 C-106.8934439 39.82651115 -106.65364628 35.70620129 -106.54993112 30.3345182 C-106.54690988 29.59254188 -106.54388864 28.85056556 -106.54077585 28.08610512 C-106.53157262 26.46310281 -106.51477434 24.84012941 -106.49118002 23.21727253 C-106.43105913 18.84892831 -106.38833538 14.48048162 -106.34553964 10.11193825 C-106.33697018 9.24713293 -106.32840071 8.38232762 -106.31957157 7.49131609 C-106.29859293 5.37264495 -106.27776267 3.25397235 -106.25696237 1.13529945 C-70.83806669 0.12817325 -35.42986659 -0.01521295 0 0 Z " fill="#8E8A80" transform="translate(106.25696237385273,360.8647005483508)"/>
<path d="M0 0 C5.15944873 -0.09920549 10.31833689 -0.17162646 15.47851562 -0.21972656 C17.23219479 -0.2397871 18.98580753 -0.26704251 20.73925781 -0.30175781 C23.26644318 -0.35052302 25.79274091 -0.37302392 28.3203125 -0.390625 C29.09867462 -0.41127014 29.87703674 -0.43191528 30.6789856 -0.45318604 C35.90593818 -0.45531917 38.90980316 0.46175699 43 4 C47.14772714 8.85893256 46.40869428 14.45168589 46.36076355 20.49690247 C46.36332682 21.67315412 46.3658901 22.84940577 46.36853105 24.06130141 C46.37261752 27.32238972 46.36324423 30.58312016 46.34819686 33.84416616 C46.3352401 37.36217506 46.3396257 40.88016731 46.34190369 44.39819336 C46.34347665 50.49212916 46.33406506 56.58596858 46.31719017 62.67988014 C46.29280785 71.49063445 46.28499569 80.30134216 46.2812262 89.11212655 C46.27466051 103.40705284 46.25469615 117.70192777 46.22631836 131.99682617 C46.19878083 145.88289131 46.17758015 159.76894242 46.16479492 173.6550293 C46.16399093 174.51971268 46.16318694 175.38439606 46.16235858 176.27528197 C46.15612031 183.03768563 46.15024954 189.80008959 46.14449489 196.56249368 C46.11619443 229.70837626 46.05583943 262.85413027 46 296 C-4.82 296 -55.64 296 -108 296 C-104.65386356 292.65386356 -101.59505953 289.77677422 -97.9375 286.875 C-82.68721376 274.49559542 -67.95149732 260.62081668 -56 245 C-55.55624023 244.43265137 -55.11248047 243.86530273 -54.65527344 243.28076172 C-46.86243415 233.31446319 -39.8840675 222.95845151 -33.31054688 212.15136719 C-32.1846863 210.30317729 -31.0395123 208.46677704 -29.890625 206.6328125 C-18.95162006 188.50661009 -10.95129097 168.27206544 -5 148 C-4.74025391 147.13616699 -4.48050781 146.27233398 -4.21289062 145.38232422 C-2.21453432 138.64342266 -0.52355592 131.86121932 1 125 C1.24556641 123.90574707 1.49113281 122.81149414 1.74414062 121.68408203 C5.64252681 103.45475508 6.47590369 85.59624451 6.5 67 C6.50449158 65.93728882 6.50898315 64.87457764 6.51361084 63.77966309 C6.550736 42.18616639 3.7784966 21.22389579 0 0 Z " fill="#44433F" transform="translate(466,66)"/>
<path d="M0 0 C0.97582031 -0.01675781 1.95164063 -0.03351563 2.95703125 -0.05078125 C11.28909364 0.88619795 17.64563845 5.25353396 24.5 9.75 C26.46723209 11.02116741 28.43468363 12.29199526 30.40234375 13.5625 C31.37929199 14.19671875 32.35624023 14.8309375 33.36279297 15.484375 C37.41005354 18.10372566 41.48370503 20.68013101 45.5625 23.25 C46.70332031 23.97038452 46.70332031 23.97038452 47.8671875 24.70532227 C53.21664175 28.08033554 58.57951202 31.43357076 63.94580078 34.78173828 C73.04068141 40.45676931 82.12831111 46.14312716 91.1875 51.875 C92.07671143 52.43429199 92.96592285 52.99358398 93.88208008 53.56982422 C113.63004341 66.10120594 113.63004341 66.10120594 116.1875 76.3125 C116.8962997 83.35260512 116.59411291 89.067043 113.1875 95.3125 C113.79110352 95.54106689 114.39470703 95.76963379 115.01660156 96.00512695 C117.82163857 97.69439519 118.51374587 99.29072273 119.921875 102.23046875 C120.41010742 103.23142578 120.89833984 104.23238281 121.40136719 105.26367188 C122.16175293 106.8656543 122.16175293 106.8656543 122.9375 108.5 C123.99842066 110.68175827 125.06092233 112.86274846 126.125 115.04296875 C126.64320313 116.1107959 127.16140625 117.17862305 127.6953125 118.27880859 C129.69131567 122.33678232 131.78941984 126.33337561 133.9375 130.3125 C134.27233398 130.93406982 134.60716797 131.55563965 134.95214844 132.19604492 C135.69442474 133.56973549 136.44043156 134.94140969 137.1875 136.3125 C140.13872634 132.75410544 142.0383369 128.76502239 144.0234375 124.625 C144.76515281 123.10654009 145.50735536 121.58831811 146.25 120.0703125 C147.40935515 117.68970443 148.56491052 115.3074844 149.71191406 112.92089844 C150.82567393 110.608439 151.95460054 108.30390015 153.0859375 106 C153.59089249 104.93422729 153.59089249 104.93422729 154.10604858 103.84692383 C156.18423501 99.6470825 158.1288889 96.90140316 162.1875 94.3125 C165.9539742 93.6847543 167.67499667 94.04510696 171.0625 95.8125 C173.50131637 98.68169573 173.64901531 100.30862555 173.53979492 104.00653076 C172.8582382 108.46770447 170.71929489 112.25884964 168.65625 116.2265625 C168.1869104 117.15866547 167.7175708 118.09076843 167.23400879 119.05111694 C165.73335828 122.02105358 164.21047036 124.97895867 162.6875 127.9375 C161.69392463 129.9016423 160.70172408 131.86648071 159.7109375 133.83203125 C144.64970849 163.58139576 144.64970849 163.58139576 141.1875 165.3125 C137.197913 165.76415136 135.03675565 165.96368534 131.78930664 163.47363281 C128.0443262 159.44956248 126.10897466 154.31013256 123.87109375 149.359375 C122.85049522 147.19167686 121.82763934 145.02504035 120.80273438 142.859375 C119.20320012 139.45608968 117.61878156 136.04871992 116.07202148 132.62109375 C114.56793289 129.30395833 113.0067048 126.01922393 111.43359375 122.734375 C110.98624374 121.70528015 110.53889374 120.6761853 110.07798767 119.61590576 C108.65798354 116.72112708 107.50042143 114.56483135 105.1875 112.3125 C101.12647031 111.16854342 97.38232132 111.05502199 93.1875 111.3125 C93.19749275 112.1978669 93.19749275 112.1978669 93.20768738 113.10112 C93.27410302 119.24924264 93.3193265 125.39726321 93.35229492 131.5456543 C93.36737308 133.83964172 93.3878387 136.13360037 93.41381836 138.42749023 C93.45024358 141.72647205 93.46723631 145.0250724 93.48046875 148.32421875 C93.49595261 149.34835373 93.51143646 150.37248871 93.52738953 151.42765808 C93.52950851 160.4108663 93.52950851 160.4108663 90.1875 164.3125 C87.09576248 165.85836876 84.59320448 165.60609521 81.1875 165.3125 C78.82252561 163.44541495 77.52719285 161.99188569 76.1875 159.3125 C76.10066555 156.54089374 76.0719421 153.79475235 76.08984375 151.0234375 C76.0912587 150.20501373 76.09267365 149.38658997 76.09413147 148.54336548 C76.0997371 145.92470675 76.11229052 143.30613296 76.125 140.6875 C76.13001428 138.91406373 76.13457731 137.14062613 76.13867188 135.3671875 C76.14970836 131.01559218 76.16697675 126.6640605 76.1875 122.3125 C64.36261983 129.67774667 52.55138509 137.06078943 40.8125 144.5625 C33.93168378 148.9552745 27.02510668 153.30037684 20.0625 157.5625 C19.32209473 158.01657227 18.58168945 158.47064453 17.81884766 158.93847656 C16.79090088 159.56447754 16.79090088 159.56447754 15.7421875 160.203125 C14.85249268 160.74501465 14.85249268 160.74501465 13.94482422 161.29785156 C7.44356943 165.051563 1.64279106 164.9970844 -5.8125 164.3125 C-8.85120444 163.39853308 -11.22063695 162.12048252 -13.8125 160.3125 C-14.699375 159.77625 -15.58625 159.24 -16.5 158.6875 C-23.56595207 151.43057626 -24.54270008 143.28717187 -24.44360352 133.55419922 C-24.45075882 132.31713226 -24.45791412 131.08006531 -24.46528625 129.80551147 C-24.4792131 126.44147491 -24.47095567 123.07899655 -24.45119596 119.71508932 C-24.43469714 116.17944652 -24.44363751 112.64385004 -24.44871521 109.10818481 C-24.45322256 103.17534715 -24.43744841 97.24282618 -24.40942383 91.31005859 C-24.37734819 84.46725619 -24.37740338 77.62502368 -24.3946386 70.78218067 C-24.41054126 64.17519151 -24.40374813 57.56840976 -24.38670158 50.9614296 C-24.37985913 48.16015166 -24.38083432 45.35904138 -24.38824654 42.55776596 C-24.39738075 38.64229611 -24.37329355 34.72740445 -24.34594727 30.81201172 C-24.35247314 29.65958984 -24.35899902 28.50716797 -24.36572266 27.31982422 C-24.27134379 19.35711601 -23.05497463 13.96680951 -17.62890625 7.8515625 C-16.51322266 6.90410156 -16.51322266 6.90410156 -15.375 5.9375 C-14.63378906 5.29039062 -13.89257812 4.64328125 -13.12890625 3.9765625 C-8.8482718 0.90143556 -5.237357 0.02059249 0 0 Z " fill="#DF1152" transform="translate(204.8125,133.6875)"/>
<path d="M0 0 C0.99923959 -0.0039821 1.99847917 -0.00796419 3.02799875 -0.01206696 C4.11846385 -0.00624128 5.20892896 -0.00041559 6.33243847 0.00558662 C7.49643946 0.00387777 8.66044046 0.00216892 9.85971421 0.00040829 C13.08652433 -0.00231581 16.31317368 0.00393254 19.5399648 0.01396441 C23.02116363 0.02260273 26.50235498 0.01967848 29.98356152 0.01815987 C36.0136324 0.01711126 42.04365999 0.02338535 48.07371998 0.03463554 C56.79216398 0.05089082 65.51058706 0.05609858 74.22904458 0.05861153 C88.37421342 0.06298858 102.51935918 0.07629799 116.6645155 0.09521675 C130.40507422 0.11357527 144.14562667 0.12773191 157.88619518 0.13623238 C158.73318831 0.13675782 159.58018144 0.13728327 160.45284102 0.13782464 C164.70196405 0.14043472 168.95108711 0.14296213 173.20021021 0.14544845 C208.44996579 0.16618128 243.69969457 0.20140712 278.9494276 0.24609566 C278.16745007 0.87137154 277.38547253 1.49664742 276.5797987 2.14087105 C275.00539901 3.40094609 273.43269883 4.66315577 271.8634901 5.92968941 C253.69995385 19.84680166 232.24580755 29.8395295 210.9494276 37.93359566 C210.01300426 38.2903437 209.07658092 38.64709175 208.11178112 39.01465034 C205.07262546 40.14043712 202.01590808 41.19685671 198.9494276 42.24609566 C197.73550083 42.67001343 196.52157406 43.0939312 195.27086163 43.53069496 C184.44837647 47.12461048 174.61423364 47.95603168 163.27169323 47.86133003 C161.47099823 47.86484169 159.67030638 47.87051195 157.86962414 47.87814522 C153.0352585 47.89224461 148.20147177 47.87548434 143.36716175 47.85186005 C138.28386943 47.83158013 133.20059715 47.83763901 128.11727428 47.83996773 C119.59410716 47.83991438 111.07116339 47.82028226 102.54806042 47.78808784 C92.71110714 47.75111003 82.87444497 47.74242768 73.03743124 47.74938536 C63.53920016 47.75569848 54.04106822 47.74492713 44.54285717 47.72542 C40.51436984 47.71727159 36.48593335 47.71453166 32.45743847 47.71611214 C27.71626809 47.71699365 22.97537266 47.70270334 18.23427486 47.6768856 C16.49971761 47.6697511 14.76513104 47.66762703 13.0305624 47.67100334 C-8.41707671 47.70477759 -8.41707671 47.70477759 -16.5427599 39.95703316 C-21.82115603 33.96755775 -22.71782584 28.27239197 -22.4255724 20.36328316 C-21.5079983 12.73594853 -17.86216562 8.57608589 -12.14822865 3.69140816 C-8.23434185 0.99468914 -4.72648697 -0.00416982 0 0 Z " fill="#B4B0A3" transform="translate(78.0505723953247,361.75390434265137)"/>
<path d="M0 0 C0.97582031 -0.01675781 1.95164063 -0.03351563 2.95703125 -0.05078125 C11.28895551 0.88618242 17.64583275 5.25334027 24.5 9.75 C26.45027268 11.0108006 28.40079825 12.27121011 30.3515625 13.53125 C31.32641602 14.16417969 32.30126953 14.79710937 33.30566406 15.44921875 C36.84037662 17.73462423 40.39545647 19.98613222 43.95849609 22.22705078 C45.55376907 23.232437 47.14533938 24.24372549 48.73291016 25.26123047 C52.03928869 27.37551819 55.32222696 29.42860234 58.8125 31.2265625 C59.823125 31.77054688 60.83375 32.31453125 61.875 32.875 C62.72449219 33.28878906 63.57398438 33.70257813 64.44921875 34.12890625 C67.52944916 37.99822939 66.66143363 42.58282009 66.1875 47.3125 C65.60184849 50.93010789 64.74581951 54.41226066 63.75 57.9375 C63.48558105 58.88463867 63.22116211 59.83177734 62.94873047 60.80761719 C56.01186966 84.25649405 40.02575413 104.4946398 18.56640625 116.33984375 C6.86828681 122.57227017 -6.53909044 128.41765019 -20.00244141 128.33569336 C-21.25976074 128.32803955 -22.51708008 128.32038574 -23.8125 128.3125 C-23.90609992 114.10851256 -23.97628939 99.90457322 -24.01974869 85.70034027 C-24.04060871 79.10447989 -24.06889817 72.50882694 -24.11425781 65.91308594 C-24.15777093 59.54588282 -24.18164904 53.17887904 -24.19200897 46.8115387 C-24.19939043 44.38429121 -24.21380467 41.95705443 -24.23542023 39.52989197 C-24.2645258 36.12580936 -24.26845286 32.72254673 -24.26660156 29.31835938 C-24.28098267 28.31854034 -24.29536377 27.31872131 -24.31018066 26.28860474 C-24.26624143 18.80469111 -22.63161324 13.48967592 -17.62890625 7.8515625 C-16.51322266 6.90410156 -16.51322266 6.90410156 -15.375 5.9375 C-14.63378906 5.29039062 -13.89257812 4.64328125 -13.12890625 3.9765625 C-8.8482718 0.90143556 -5.237357 0.02059249 0 0 Z " fill="#FD255E" transform="translate(204.8125,133.6875)"/>
<path d="M0 0 C4.81519522 3.53389864 7.88279527 7.70924607 9.8203125 13.3359375 C10.07758141 15.99032307 10.07758141 15.99032307 10.08773804 18.89460754 C10.09626801 20.00058792 10.10479797 21.1065683 10.11358643 22.24606323 C10.11268005 23.44981598 10.11177368 24.65356873 10.11083984 25.89379883 C10.11755707 27.16914993 10.12427429 28.44450104 10.13119507 29.75849915 C10.14883224 33.25038366 10.15354951 36.7421701 10.15482664 40.23409486 C10.15625025 42.4183537 10.16052385 44.60258776 10.16582108 46.78684044 C10.18431476 54.41463168 10.19249264 62.0423531 10.19091797 69.67016602 C10.18971718 76.7678635 10.21080867 83.8652566 10.2424053 90.96287709 C10.26860433 97.06667625 10.27928373 103.17037622 10.27800715 109.27423114 C10.27749852 112.91528354 10.2831263 116.5560654 10.30436325 120.19706154 C10.32742374 124.26154827 10.3182027 128.32535825 10.30615234 132.38989258 C10.31739136 133.58757263 10.32863037 134.78525269 10.34020996 136.01922607 C10.28189199 143.76651997 9.48508468 149.69190932 3.75 155.39453125 C3.07195313 155.84957031 2.39390625 156.30460938 1.6953125 156.7734375 C1.01210938 157.24652344 0.32890625 157.71960938 -0.375 158.20703125 C-5.79427013 161.59700759 -11.97950538 161.03671158 -18.1796875 160.3359375 C-24.18415058 157.90215092 -28.16480881 153.98883505 -31.1796875 148.3359375 C-32.19355394 145.29433817 -32.31019324 143.23861944 -32.32012939 140.05574036 C-32.32583954 138.96092346 -32.33154968 137.86610657 -32.33743286 136.7381134 C-32.33855072 135.53652084 -32.33966858 134.33492828 -32.34082031 133.09692383 C-32.34578522 131.83161835 -32.35075012 130.56631287 -32.35586548 129.26266479 C-32.36898319 125.78927609 -32.37543362 122.31590671 -32.37987614 118.84249711 C-32.38280888 116.67065246 -32.38691414 114.49881306 -32.39138031 112.32697105 C-32.40505579 105.52675648 -32.41472126 98.72655395 -32.4185822 91.92632657 C-32.42305827 84.0863204 -32.44058482 76.24648898 -32.4695828 68.40653592 C-32.49123557 62.34100421 -32.50128845 56.27552152 -32.50262332 50.20995158 C-32.50366911 46.59014871 -32.50952801 42.9705101 -32.52744293 39.35074806 C-32.54706292 35.3076998 -32.54262037 31.26501453 -32.53613281 27.22192383 C-32.5453476 26.03045242 -32.55456238 24.83898102 -32.5640564 23.61140442 C-32.5273418 16.30088483 -32.18281084 9.94219858 -27.3125 4.09375 C-18.93565968 -2.71854427 -10.07841084 -5.75326287 0 0 Z " fill="#6F6B63" transform="translate(32.1796875,129.6640625)"/>
<path d="M0 0 C1.34244278 -0.01007584 1.34244278 -0.01007584 2.71200562 -0.02035522 C5.66572651 -0.03932673 8.61922004 -0.04325911 11.57299805 -0.04541016 C13.63177076 -0.05183904 15.69054256 -0.05856747 17.74931335 -0.06558228 C22.06417966 -0.07755319 26.37896592 -0.08126332 30.69384766 -0.08007812 C36.21182558 -0.07987503 41.72928792 -0.10716809 47.24714375 -0.14162254 C51.49977456 -0.16390579 55.75228162 -0.16791521 60.00496483 -0.16685867 C62.03865522 -0.16921283 64.07234912 -0.17802584 66.10598183 -0.19352341 C68.95643393 -0.21321048 71.80577848 -0.20733442 74.65625 -0.1953125 C75.90575188 -0.21217102 75.90575188 -0.21217102 77.18049622 -0.22937012 C83.95195667 -0.15712478 89.18082934 1.75604933 94.2644043 6.29052734 C94.80323242 6.95052734 95.34206055 7.61052734 95.8972168 8.29052734 C96.45151367 8.95052734 97.00581055 9.61052734 97.5769043 10.29052734 C102.21481049 16.70838673 101.9284785 23.662168 101.0222168 31.29052734 C97.96984676 38.72238482 92.37463443 43.58410489 85.03351974 46.65394974 C81.45511049 47.78651666 77.92530799 47.70723877 74.20043945 47.67871094 C73.34580612 47.6839679 72.49117279 47.68922485 71.61064148 47.69464111 C68.80233148 47.70777959 65.99459448 47.69912333 63.1862793 47.68896484 C61.22244153 47.69098772 59.25860449 47.69390094 57.29476929 47.69766235 C53.18431426 47.7020777 49.07405523 47.69568143 44.96362305 47.68164062 C39.71265314 47.6645719 34.46214409 47.67438037 29.21119118 47.69235802 C25.15667292 47.70323646 21.10226257 47.69973053 17.04774094 47.69197464 C15.1125826 47.68998267 13.17741425 47.69239639 11.24226761 47.6994133 C8.5288451 47.70709229 5.81615186 47.69533305 3.1027832 47.67871094 C2.31392227 47.68478363 1.52506134 47.69085632 0.71229553 47.69711304 C-7.32625031 47.60657856 -14.55148763 45.64466964 -20.4699707 40.00146484 C-25.74836684 34.01198943 -26.64503665 28.31682365 -26.3527832 20.40771484 C-25.43520911 12.78038021 -21.78937643 8.62051757 -16.07543945 3.73583984 C-10.84064579 0.12899877 -6.15229524 -0.00664574 0 0 Z " fill="#E7E3D7" transform="translate(81.977783203125,361.70947265625)"/>
<path d="M0 0 C24.09 0 48.18 0 73 0 C72.01 0.66 71.02 1.32 70 2 C63.87133536 6.17806296 59.41414473 9.75756582 57 17 C56.35682959 24.70750113 56.15863804 31.65042559 61 38 C67.0808826 44.36371435 74.53691784 46.28006864 83.11830139 46.49235535 C83.94680099 46.49874527 84.7753006 46.50513519 85.62890625 46.51171875 C86.50401352 46.52966995 87.37912079 46.54762115 88.28074646 46.56611633 C91.04128377 46.61975302 93.80165295 46.65396354 96.5625 46.6875 C98.44859088 46.72071438 100.3346597 46.75520778 102.22070312 46.79101562 C106.81367976 46.87545188 111.4066106 46.94248333 116 47 C115.03532302 48.12549172 114.07064108 49.25097919 113.10595703 50.37646484 C112.56875031 51.00322113 112.03154358 51.62997742 111.47805786 52.27572632 C106.23124315 58.39655877 100.84067977 64.36217571 95.35327148 70.26733398 C92.64618218 73.18803927 89.99395649 76.13253449 87.4375 79.1875 C83.43791723 83.80240319 83.43791723 83.80240319 80.10290527 84.26069641 C79.39025513 84.2653038 78.67760498 84.26991119 77.94335938 84.2746582 C77.13241821 84.28419022 76.32147705 84.29372223 75.48596191 84.30354309 C74.61403198 84.30263168 73.74210205 84.30172028 72.84375 84.30078125 C71.94507202 84.30506638 71.04639404 84.3093515 70.1204834 84.31376648 C68.22079308 84.31950843 66.32108077 84.32001103 64.42138672 84.31567383 C61.51101319 84.31251196 58.60165421 84.33598096 55.69140625 84.36132812 C53.84635545 84.3636009 52.00130191 84.36430472 50.15625 84.36328125 C49.28432007 84.372491 48.41239014 84.38170074 47.51403809 84.39118958 C46.70309692 84.38496078 45.89215576 84.37873199 45.05664062 84.37231445 C43.98766541 84.37325859 43.98766541 84.37325859 42.89709473 84.3742218 C40.41494096 83.88459098 39.5310384 82.98169989 38 81 C37.50390625 78.171875 37.50390625 78.171875 38 75 C39.59238464 72.82126064 41.04284949 71.11969216 42.9375 69.25 C43.94842844 68.20231649 44.95883714 67.15413126 45.96875 66.10546875 C46.73251953 65.32695557 46.73251953 65.32695557 47.51171875 64.53271484 C49.71481144 62.2638474 51.82619346 59.91660679 53.9375 57.5625 C54.62714844 56.80066406 55.31679688 56.03882813 56.02734375 55.25390625 C58.09454753 52.89197243 60.04617971 50.4560642 62 48 C61.34933563 47.99635437 60.69867126 47.99270874 60.02828979 47.98895264 C53.24701409 47.94709428 46.46641308 47.87772464 39.68554688 47.79248047 C37.15599317 47.76428068 34.62635151 47.74306127 32.09667969 47.72900391 C28.45722454 47.70756171 24.81882585 47.6609014 21.1796875 47.609375 C20.05134491 47.60814636 18.92300232 47.60691772 17.76046753 47.60565186 C11.73685915 47.49366612 7.60370936 47.31557218 3 43 C-0.63648152 38.6912117 -0.39668391 34.57090184 -0.29296875 29.19921875 C-0.28994751 28.45724243 -0.28692627 27.71526611 -0.28381348 26.95080566 C-0.26819365 24.19622764 -0.22630977 21.4418489 -0.1875 18.6875 C-0.125625 12.520625 -0.06375 6.35375 0 0 Z " fill="#D7D3C8" transform="translate(0,362)"/>
<path d="M0 0 C1.24624146 -0.00478363 2.49248291 -0.00956726 3.77648926 -0.01449585 C7.08265982 -0.01876532 10.38765061 0.00131791 13.69366455 0.02929688 C15.71721878 0.03905512 17.73968898 0.02933197 19.76318359 0.01220703 C23.65513353 -0.01868523 27.54548315 -0.0149393 31.4375 0 C32.64281372 -0.01012115 33.84812744 -0.02024231 35.08996582 -0.03067017 C43.41064074 0.08593373 43.41064074 0.08593373 47.35424805 2.90722656 C49.03069201 5.38600163 50.53868561 7.74110652 51.83203125 10.4375 C52.27184326 11.33839355 52.71165527 12.23928711 53.16479492 13.16748047 C53.6157251 14.11510254 54.06665527 15.06272461 54.53125 16.0390625 C55.49055819 18.00860693 56.45150571 19.97735369 57.4140625 21.9453125 C57.88489258 22.91210938 58.35572266 23.87890625 58.84082031 24.875 C60.78312961 28.80642123 62.82634855 32.67904802 64.90625 36.5390625 C65.24503174 37.1686084 65.58381348 37.7981543 65.93286133 38.44677734 C66.69229373 39.85390772 67.45506641 41.25923481 68.21875 42.6640625 C71.16997634 39.10566794 73.0695869 35.11658489 75.0546875 30.9765625 C75.79640281 29.45810259 76.53860536 27.93988061 77.28125 26.421875 C78.44060515 24.04126693 79.59616052 21.6590469 80.74316406 19.27246094 C81.85692393 16.9600015 82.98585054 14.65546265 84.1171875 12.3515625 C84.45382416 11.64104736 84.79046082 10.93053223 85.13729858 10.19848633 C87.21548501 5.998645 89.1601389 3.25296566 93.21875 0.6640625 C96.9852242 0.0363168 98.70624667 0.39666946 102.09375 2.1640625 C104.53256637 5.03325823 104.68026531 6.66018805 104.57104492 10.35809326 C103.8894882 14.81926697 101.75054489 18.61041214 99.6875 22.578125 C99.2181604 23.51022797 98.7488208 24.44233093 98.26525879 25.40267944 C96.76460828 28.37261608 95.24172036 31.33052117 93.71875 34.2890625 C92.72517463 36.2532048 91.73297408 38.21804321 90.7421875 40.18359375 C75.68095849 69.93295826 75.68095849 69.93295826 72.21875 71.6640625 C68.229163 72.11571386 66.06800565 72.31524784 62.82055664 69.82519531 C59.0755762 65.80112498 57.14022466 60.66169506 54.90234375 55.7109375 C53.88174522 53.54323936 52.85888934 51.37660285 51.83398438 49.2109375 C50.23445012 45.80765218 48.65003156 42.40028242 47.10327148 38.97265625 C45.59918289 35.65552083 44.0379548 32.37078643 42.46484375 29.0859375 C42.01749374 28.05684265 41.57014374 27.0277478 41.10923767 25.96746826 C39.68923354 23.07268958 38.53167143 20.91639385 36.21875 18.6640625 C32.15772031 17.52010592 28.41357132 17.40658449 24.21875 17.6640625 C24.22541183 18.2543071 24.23207367 18.8445517 24.23893738 19.4526825 C24.30535302 25.60080514 24.3505765 31.74882571 24.38354492 37.8972168 C24.39862308 40.19120422 24.4190887 42.48516287 24.44506836 44.77905273 C24.48149358 48.07803455 24.49848631 51.3766349 24.51171875 54.67578125 C24.52720261 55.69991623 24.54268646 56.72405121 24.55863953 57.77922058 C24.56075851 66.7624288 24.56075851 66.7624288 21.21875 70.6640625 C18.12701248 72.20993126 15.62445448 71.95765771 12.21875 71.6640625 C9.85377561 69.79697745 8.55844285 68.34344819 7.21875 65.6640625 C7.12883908 64.12178394 7.10118039 62.57565355 7.10522461 61.03076172 C7.10530014 60.06991669 7.10537567 59.10907166 7.10545349 58.11911011 C7.11061478 57.07949127 7.11577606 56.03987244 7.12109375 54.96875 C7.1225087 53.90616974 7.12392365 52.84358948 7.12538147 51.74880981 C7.13099166 48.34553241 7.14354591 44.94232012 7.15625 41.5390625 C7.16126369 39.23567803 7.16582682 36.93229253 7.16992188 34.62890625 C7.1809644 28.97393601 7.19771248 23.31900391 7.21875 17.6640625 C5.24841797 17.73367187 5.24841797 17.73367187 3.23828125 17.8046875 C1.50262696 17.84221516 -0.23305199 17.87861425 -1.96875 17.9140625 C-2.83306641 17.94757813 -3.69738281 17.98109375 -4.58789062 18.015625 C-8.8424294 18.08082866 -11.13852716 18.06236961 -14.83203125 15.7734375 C-17.14239598 13.2732432 -17.70611585 12.2275686 -18.15625 8.8515625 C-17.76517441 5.52741998 -17.11375166 3.99405382 -14.66870117 1.70953369 C-10.29292599 -0.71423598 -4.86224786 -0.04082884 0 0 Z " fill="#FCFBFB" transform="translate(273.78125,227.3359375)"/>
<path d="M0 0 C4.7767882 3.50571151 7.98067815 7.71049926 9.8203125 13.3359375 C10.03199461 16.06485785 10.14800501 18.6893798 10.15625 21.41796875 C10.1629068 22.19097824 10.1695636 22.96398773 10.17642212 23.76042175 C10.186518 25.39177076 10.19124009 27.0231608 10.19091797 28.65454102 C10.19528076 31.13042529 10.23160095 33.60451001 10.26953125 36.08007812 C10.27540247 37.67186897 10.27936982 39.26366819 10.28125 40.85546875 C10.29562103 41.58594925 10.30999207 42.31642975 10.32479858 43.06904602 C10.26937451 49.41020425 8.23035045 54.5430971 4.07421875 59.359375 C-1.74290282 64.00769847 -6.0735332 65.83518285 -13.62109375 65.64453125 C-20.38017027 64.82931439 -24.70834043 61.32518495 -28.953125 56.21484375 C-32.0583464 51.45811924 -32.4875719 47.04258182 -32.48046875 41.47265625 C-32.48475388 40.7218428 -32.489039 39.97102936 -32.49345398 39.19746399 C-32.4991795 37.61317957 -32.49971067 36.02886887 -32.49536133 34.44458008 C-32.492211 32.04136384 -32.51564763 29.63939156 -32.54101562 27.23632812 C-32.54329003 25.6901057 -32.54399146 24.14388001 -32.54296875 22.59765625 C-32.5521785 21.88904953 -32.56138824 21.18044281 -32.57087708 20.45036316 C-32.51584739 14.40755252 -31.2752177 8.85232732 -27.3125 4.09375 C-18.93565968 -2.71854427 -10.07841084 -5.75326287 0 0 Z " fill="#8E8A80" transform="translate(32.1796875,129.6640625)"/>
<path d="M0 0 C7.1165744 -0.10176424 14.2329598 -0.17161829 21.35009766 -0.21972656 C23.7691143 -0.23979065 26.18808276 -0.26704843 28.60693359 -0.30175781 C32.09224368 -0.35050341 35.57691016 -0.37302164 39.0625 -0.390625 C40.13677246 -0.41127014 41.21104492 -0.43191528 42.31787109 -0.45318604 C50.00029371 -0.45546056 55.34357785 0.73852241 61.2421875 6 C61.78101563 6.66 62.31984375 7.32 62.875 8 C63.42929688 8.66 63.98359375 9.32 64.5546875 10 C69.19259369 16.41785938 68.9062617 23.37164066 68 31 C65.01730803 38.26220653 59.43521541 43.35632674 52.22653198 46.36929321 C47.50852779 47.70575606 42.58636304 47.36001842 37.72265625 47.29296875 C36.5561705 47.28872391 35.38968475 47.28447906 34.18785095 47.28010559 C30.47916126 47.26337522 26.77102418 47.22573221 23.0625 47.1875 C20.5410235 47.17244593 18.01953844 47.15875879 15.49804688 47.14648438 C9.33184418 47.1134901 3.16596158 47.06334646 -3 47 C-3 46.67 -3 46.34 -3 46 C-2.40832031 45.82984375 -1.81664063 45.6596875 -1.20703125 45.484375 C5.88885464 43.30814899 10.05870144 41.04585847 13.8125 34.4375 C16.80979422 27.95763535 17.38602445 22.02229953 15.04296875 15.22265625 C11.59510619 7.76870575 7.40872172 4.44591708 0 1 C0 0.67 0 0.34 0 0 Z " fill="#D7D3C8" transform="translate(115,362)"/>
<path d="M0 0 C1.16931564 0.00848969 2.33863129 0.01697937 3.54338074 0.02572632 C7.27335235 0.05927817 11.00115199 0.13456924 14.73046875 0.2109375 C17.26103646 0.24103441 19.7916381 0.26841068 22.32226562 0.29296875 C28.52157276 0.35907575 34.71961559 0.45944537 40.91796875 0.5859375 C39.95329177 1.71142922 38.98860983 2.83691669 38.02392578 3.96240234 C37.48671906 4.58915863 36.94951233 5.21591492 36.39602661 5.86166382 C31.1492119 11.98249627 25.75864852 17.94811321 20.27124023 23.85327148 C17.56415093 26.77397677 14.91192524 29.71847199 12.35546875 32.7734375 C8.35588598 37.38834069 8.35588598 37.38834069 5.02087402 37.84663391 C4.30822388 37.8512413 3.59557373 37.85584869 2.86132812 37.8605957 C1.64491638 37.87489372 1.64491638 37.87489372 0.40393066 37.88948059 C-0.90396423 37.88811348 -0.90396423 37.88811348 -2.23828125 37.88671875 C-3.13695923 37.89100388 -4.03563721 37.895289 -4.96154785 37.89970398 C-6.86123817 37.90544593 -8.76095048 37.90594853 -10.66064453 37.90161133 C-13.57101806 37.89844946 -16.48037704 37.92191846 -19.390625 37.94726562 C-21.2356758 37.9495384 -23.08072934 37.95024222 -24.92578125 37.94921875 C-25.79771118 37.9584285 -26.66964111 37.96763824 -27.56799316 37.97712708 C-28.37893433 37.97089828 -29.18987549 37.96466949 -30.02539062 37.95825195 C-31.09436584 37.95919609 -31.09436584 37.95919609 -32.18493652 37.9601593 C-34.66709029 37.47052848 -35.55099285 36.56763739 -37.08203125 34.5859375 C-37.578125 31.7578125 -37.578125 31.7578125 -37.08203125 28.5859375 C-35.48961784 26.40715878 -34.03920775 24.70565942 -32.14453125 22.8359375 C-31.13229757 21.78695498 -30.12058666 20.73746778 -29.109375 19.6875 C-28.60003418 19.16833008 -28.09069336 18.64916016 -27.56591797 18.11425781 C-25.38482182 15.86785079 -23.29593857 13.54290487 -21.20703125 11.2109375 C-20.52898438 10.46070313 -19.8509375 9.71046875 -19.15234375 8.9375 C-16.95160235 6.57891908 -16.95160235 6.57891908 -15.20776367 3.47558594 C-11.28709429 -1.19442365 -5.62268124 -0.15361357 0 0 Z " fill="#8F8B81" transform="translate(75.08203125,408.4140625)"/>
<path d="M0 0 C13.86 0 27.72 0 42 0 C38 3 38 3 35.0625 4.6875 C30.69245556 7.98732948 28.41956602 12.16086796 26 17 C25.08590389 25.25298202 25.81441892 32.30046766 31 39 C33.82168817 41.38188038 36.777796 43.21390939 40 45 C40.99 45.66 41.98 46.32 43 47 C38.26780238 47.09927153 33.53621787 47.17165633 28.80322266 47.21972656 C27.19504226 47.23977627 25.58693417 47.26702364 23.97900391 47.30175781 C21.6602998 47.35057264 19.34256375 47.37303428 17.0234375 47.390625 C15.95432632 47.42159271 15.95432632 47.42159271 14.86361694 47.45318604 C9.74803628 47.45545804 6.87759213 46.30310793 3 43 C-0.63648152 38.6912117 -0.39668391 34.57090184 -0.29296875 29.19921875 C-0.28994751 28.45724243 -0.28692627 27.71526611 -0.28381348 26.95080566 C-0.26819365 24.19622764 -0.22630977 21.4418489 -0.1875 18.6875 C-0.125625 12.520625 -0.06375 6.35375 0 0 Z " fill="#B4B0A3" transform="translate(0,362)"/>
<path d="M0 0 C5.28935818 3.87053893 8.02477481 8.05889486 9.8203125 14.33203125 C10.04736328 17.39990234 10.04736328 17.39990234 10.015625 20.60546875 C10.00917969 21.75917969 10.00273438 22.91289063 9.99609375 24.1015625 C9.97933594 25.29136719 9.96257813 26.48117188 9.9453125 27.70703125 C9.93628906 28.92003906 9.92726562 30.13304687 9.91796875 31.3828125 C9.89447838 34.36608898 9.86162932 37.34895719 9.8203125 40.33203125 C8.73515735 38.70429852 7.65384663 37.07385011 6.59375 35.4296875 C3.10777935 30.3565291 -0.15978862 27.03980398 -6.1796875 25.33203125 C-12.96627723 24.29459078 -18.58103798 25.29202581 -24.1796875 29.33203125 C-27.93710589 32.73569778 -29.8957716 36.42980692 -31.1796875 41.33203125 C-31.5096875 41.33203125 -31.8396875 41.33203125 -32.1796875 41.33203125 C-32.26741329 36.9988273 -32.32032329 32.66585457 -32.3671875 28.33203125 C-32.39232422 27.11128906 -32.41746094 25.89054687 -32.44335938 24.6328125 C-32.51000497 16.41318952 -32.33480427 9.9725506 -26.7421875 3.51953125 C-18.82976815 -3.23497307 -9.57686309 -5.4863406 0 0 Z " fill="#6F6B63" transform="translate(32.1796875,102.66796875)"/>
<path d="M0 0 C0.93487747 0.00888245 1.86975494 0.01776489 2.83296204 0.0269165 C3.8938353 0.02721863 4.95470856 0.02752075 6.04772949 0.02783203 C7.19155594 0.04847717 8.33538239 0.06912231 9.51387024 0.09039307 C11.27208855 0.09888275 11.27208855 0.09888275 13.06582642 0.10754395 C16.81584727 0.12996485 20.5649186 0.18017423 24.31465149 0.23101807 C26.85435125 0.25107556 29.39406596 0.26932763 31.93379211 0.28570557 C38.16523681 0.32984846 44.39612633 0.39681825 50.62715149 0.48101807 C49.66987169 1.59851565 48.71249648 2.7159315 47.75508118 3.83331299 C46.9553891 4.76671761 46.9553891 4.76671761 46.13954163 5.71897888 C44.39461143 7.75194333 42.63993721 9.77601789 40.87715149 11.79351807 C40.30480774 12.44965088 39.73246399 13.10578369 39.14277649 13.78179932 C35.86642055 17.45503342 35.86642055 17.45503342 33.41252136 17.7215271 C32.03352158 17.71486526 32.03352158 17.71486526 30.62666321 17.70806885 C29.58573517 17.70791779 28.54480713 17.70776672 27.47233582 17.70761108 C25.78166489 17.69212723 25.78166489 17.69212723 24.05683899 17.67633057 C22.90547455 17.67350067 21.75411011 17.67067078 20.56785583 17.66775513 C16.87918337 17.65653214 13.19075096 17.63142362 9.50215149 17.60601807 C7.00606124 17.59599101 4.50996719 17.58686469 2.01387024 17.57867432 C-4.11511835 17.5565859 -10.24396628 17.52308753 -16.37284851 17.48101807 C-14.05510104 13.94695559 -11.88758149 10.76114629 -8.81034851 7.85601807 C-6.9449709 6.08619432 -5.44547908 4.59897335 -4.09298706 2.40246582 C-2.37284851 0.48101807 -2.37284851 0.48101807 0 0 Z " fill="#706C64" transform="translate(65.37284851074219,408.51898193359375)"/>
<path d="M0 0 C7.31385784 -0.12681395 14.62743202 -0.21435758 21.94213867 -0.2746582 C24.43020218 -0.29979671 26.91819188 -0.33391247 29.40600586 -0.37719727 C32.98309541 -0.4378743 36.55920835 -0.46621734 40.13671875 -0.48828125 C41.24834885 -0.51408768 42.35997894 -0.5398941 43.5052948 -0.56648254 C51.26306414 -0.56929772 51.26306414 -0.56929772 55.10595703 2.39941406 C55.73099121 3.25760742 56.35602539 4.11580078 57 5 C58.07314453 6.03833984 58.07314453 6.03833984 59.16796875 7.09765625 C59.83441406 7.74605469 60.50085938 8.39445312 61.1875 9.0625 C61.86167969 9.71347656 62.53585937 10.36445313 63.23046875 11.03515625 C64.9623271 12.95816894 65.90093866 14.68029573 67 17 C59.74137484 17.20348698 52.48348939 17.34320666 45.22265625 17.43945312 C42.75492875 17.4795893 40.28739036 17.53411269 37.8203125 17.60351562 C34.26514992 17.70099589 30.71250894 17.7460271 27.15625 17.78125 C26.06010376 17.82254028 24.96395752 17.86383057 23.83459473 17.90637207 C17.90253225 17.90981707 14.68307204 17.37029734 10.38476562 13.10717773 C9.22976698 11.76060387 8.09759226 10.39376263 7 9 C6.236875 8.17628906 5.47375 7.35257812 4.6875 6.50390625 C4.130625 5.86324219 3.57375 5.22257812 3 4.5625 C2.4225 3.90378906 1.845 3.24507813 1.25 2.56640625 C0 1 0 1 0 0 Z " fill="#706C64" transform="translate(396,409)"/>
</svg>
